<svg xmlns="http://www.w3.org/2000/svg" viewBox="0 0 285.96 82.1">
  <title>Ресурс 1</title>
  <g>
    <g>
      <polygon points="122.87 42.52 112.83 32.48 127.89 17.43 163.02 52.56 147.96 67.61 137.93 57.58 142.94 52.56 147.96 57.58 152.98 52.56 142.94 42.52 132.91 52.56 127.89 47.54 137.93 37.5 127.89 27.47 122.87 32.48 127.89 37.5 122.87 42.52"/>
      <polygon points="155.35 10.04 145.32 0 130.26 15.05 165.39 50.18 180.45 35.13 170.41 25.09 165.39 30.11 170.41 35.13 165.39 40.15 155.35 30.11 165.39 20.07 160.37 15.05 150.34 25.09 140.3 15.05 145.32 10.04 150.34 15.05 155.35 10.04"/>
    </g>
    <g>
      <path d="M14.36,20.5h4V41.79H15.12V25.55l.14.94L10.61,39.13H7.79L3.13,26.78l.15-1.23V41.79H0V20.5H4L9.2,34.7Z"/>
      <path d="M35,20.5h2.55l8,21.29H41.82L36.31,25.93,30.8,41.79H27ZM30.8,34.4H42v3.35H30.8Z"/>
      <path d="M54.51,20.48H58V41.79h-3.5ZM56,29.65H63.3a2.37,2.37,0,0,0,1.3-.36,2.43,2.43,0,0,0,.87-1,3.83,3.83,0,0,0,.32-1.53,3.51,3.51,0,0,0-.31-1.53,2.3,2.3,0,0,0-.87-1,2.38,2.38,0,0,0-1.31-.35H56V20.48H63.4a6.29,6.29,0,0,1,3.17.78,5.37,5.37,0,0,1,2.11,2.19,7.5,7.5,0,0,1,0,6.58,5.35,5.35,0,0,1-2.12,2.2A6.3,6.3,0,0,1,63.4,33H56Zm5.14,2.7,3.63-.68,5.6,10.12h-4.2Z"/>
      <path d="M84.28,42l-1.7-1A6.42,6.42,0,0,1,80,38.31,9.05,9.05,0,0,1,79,34.07V28.23A9,9,0,0,1,80,24a6.53,6.53,0,0,1,2.62-2.76,8.05,8.05,0,0,1,4-1,7.32,7.32,0,0,1,3.48.82,7,7,0,0,1,2.59,2.36,9.46,9.46,0,0,1,1.41,3.66h-3.6a5.14,5.14,0,0,0-.83-1.8,4.22,4.22,0,0,0-1.36-1.18,3.64,3.64,0,0,0-1.69-.41,4,4,0,0,0-2.1.55,3.66,3.66,0,0,0-1.37,1.56,5.4,5.4,0,0,0-.49,2.39v5.84a5.37,5.37,0,0,0,.49,2.39A3.52,3.52,0,0,0,84.5,38a3.87,3.87,0,0,0,2.1.55,3.71,3.71,0,0,0,1.71-.4A3.81,3.81,0,0,0,89.66,37a4.8,4.8,0,0,0,.82-1.83h3.6a9.8,9.8,0,0,1-1.42,3.66,7,7,0,0,1-2.6,2.36A7.27,7.27,0,0,1,86.6,42Z"/>
    </g>
    <g>
      <path d="M198.85,20.5h3.5V41.79h-3.5Zm1.45,0h12.53v3.35H200.3Zm0,9.05h10.91v3.34H200.3Zm0,8.89h12.53v3.35H200.3Z"/>
      <path d="M222.78,20.5h3.5V41.79h-3.5Zm1.64,17.94h12.34v3.35H224.42Z"/>
      <path d="M246,20.5h3.5V41.79H246Zm1.64,17.94H260v3.35H247.62Z"/>
      <path d="M275.42,20.5H278l8,21.29H282.2l-5.51-15.86-5.51,15.86h-3.76Zm-4.24,13.9h11.21v3.35H271.18Z"/>
    </g>
    <g>
      <path d="M97.59,73.49h1.5V82h-1.5Zm.75,7.38h6.1V82h-6.1Z"/>
      <path d="M116.46,81.71a3,3,0,0,1-1.31-1.11,2.92,2.92,0,0,1-.47-1.64V76.54a3,3,0,0,1,.47-1.65,3,3,0,0,1,1.31-1.1,5.15,5.15,0,0,1,3.93,0,3.09,3.09,0,0,1,1.31,1.1,3,3,0,0,1,.47,1.65V79a2.92,2.92,0,0,1-.47,1.64,3,3,0,0,1-1.31,1.11,5.15,5.15,0,0,1-3.93,0Zm3.12-1a1.77,1.77,0,0,0,.78-.67,1.88,1.88,0,0,0,.27-1V76.5a1.88,1.88,0,0,0-.27-1,1.71,1.71,0,0,0-.78-.67,2.64,2.64,0,0,0-1.16-.24,2.67,2.67,0,0,0-1.16.24,1.74,1.74,0,0,0-.77.67,1.81,1.81,0,0,0-.28,1V79a1.8,1.8,0,0,0,1.05,1.68,2.67,2.67,0,0,0,1.16.24A2.64,2.64,0,0,0,119.58,80.68Z"/>
      <path d="M133.44,73.49h1.35L140,80.07l-.18.16V73.49h1.48V82h-1.37l-5.19-6.48.18-.16V82h-1.48Z"/>
      <path d="M152.94,73.49h1.49V82h-1.49Zm1,7.38h2.41a3,3,0,0,0,1.83-.49,1.62,1.62,0,0,0,.65-1.38V76.49a1.64,1.64,0,0,0-.65-1.38,3,3,0,0,0-1.83-.48H154V73.49h2.37a6,6,0,0,1,2.19.36,2.89,2.89,0,0,1,1.38,1,2.82,2.82,0,0,1,.48,1.65V79a2.82,2.82,0,0,1-.48,1.65,3,3,0,0,1-1.39,1,6,6,0,0,1-2.19.36H154Z"/>
      <path d="M173.05,81.71a3,3,0,0,1-1.31-1.11,2.92,2.92,0,0,1-.47-1.64V76.54a3,3,0,0,1,.47-1.65,3,3,0,0,1,1.31-1.1,4.66,4.66,0,0,1,2-.39,4.71,4.71,0,0,1,2,.39,3.09,3.09,0,0,1,1.31,1.1,3,3,0,0,1,.47,1.65V79a2.92,2.92,0,0,1-.47,1.64A3,3,0,0,1,177,81.71a4.71,4.71,0,0,1-2,.39A4.66,4.66,0,0,1,173.05,81.71Zm3.12-1A1.77,1.77,0,0,0,177,80a1.88,1.88,0,0,0,.27-1V76.5a1.88,1.88,0,0,0-.27-1,1.71,1.71,0,0,0-.78-.67,2.64,2.64,0,0,0-1.16-.24,2.67,2.67,0,0,0-1.16.24,1.74,1.74,0,0,0-.77.67,1.81,1.81,0,0,0-.28,1V79a1.8,1.8,0,0,0,1,1.68,2.67,2.67,0,0,0,1.16.24A2.64,2.64,0,0,0,176.17,80.68Z"/>
      <path d="M190,73.49h1.35l5.21,6.58-.18.16V73.49h1.48V82h-1.37l-5.19-6.48.18-.16V82H190Z"/>
    </g>
  </g>
</svg>
